<?xml version="1.0" standalone="no"?>
<!DOCTYPE svg PUBLIC "-//W3C//DTD SVG 20010904//EN"
 "http://www.w3.org/TR/2001/REC-SVG-20010904/DTD/svg10.dtd">
<svg version="1.0" xmlns="http://www.w3.org/2000/svg"
 width="512.000000pt" height="512.000000pt" viewBox="0 0 512.000000 512.000000"
 preserveAspectRatio="xMidYMid meet">

<g transform="translate(0.000000,512.000000) scale(0.100000,-0.100000)"
fill="#249ECE" stroke="none">
<path d="M880 4695 c-456 -80 -801 -434 -869 -892 -15 -99 -15 -1877 0 -1976
52 -349 261 -637 574 -793 156 -78 269 -104 467 -111 l157 -6 191 -242 c197
-251 222 -275 290 -275 68 0 82 14 301 292 l180 227 1027 3 1027 3 100 27
c419 114 721 451 784 875 7 47 11 386 11 988 0 602 -4 941 -11 988 -70 467
-429 826 -896 896 -114 17 -3235 13 -3333 -4z m1120 -690 c0 -223 -3 -405 -8
-405 -4 0 -189 182 -412 405 l-405 405 413 0 412 0 0 -405z m820 -198 l0 -604
23 -43 c45 -86 -32 -80 1034 -80 l943 0 0 -265 0 -265 -943 0 c-1066 0 -989 6
-1034 -80 l-23 -43 0 -604 0 -603 -260 0 -260 0 0 603 0 604 -23 43 c-45 86
32 80 -1034 80 l-943 0 0 265 0 265 943 0 c1066 0 989 -6 1034 80 l23 43 0
604 0 603 260 0 260 0 0 -603z m720 198 c-223 -223 -408 -405 -412 -405 -5 0
-8 182 -8 405 l0 405 412 0 413 0 -405 -405z m-2245 -135 l490 -490 -744 0
-744 0 6 203 c6 209 15 266 57 367 63 147 196 293 335 367 44 24 87 43 95 43
8 0 236 -220 505 -490z m3128 448 c141 -74 274 -220 337 -368 42 -101 51 -158
57 -367 l6 -203 -744 0 -744 0 490 490 c269 270 496 490 504 490 7 0 50 -19
94 -42z m-3128 -2558 c-269 -270 -496 -490 -503 -490 -7 0 -36 12 -65 26 -195
99 -338 269 -397 474 -18 62 -23 110 -27 278 l-6 202 744 0 744 0 -490 -490z
m3522 288 c-4 -168 -9 -216 -27 -278 -59 -205 -202 -375 -397 -474 -29 -14
-58 -26 -65 -26 -7 0 -234 220 -503 490 l-490 490 744 0 744 0 -6 -202z
m-2817 -435 l-1 -428 -150 -190 c-83 -104 -155 -190 -160 -190 -5 0 -76 83
-157 185 -81 102 -162 195 -181 207 -27 19 -48 23 -105 23 l-71 0 410 410
c225 226 411 410 412 410 2 0 3 -192 3 -427z m1535 17 l410 -410 -413 0 -412
0 0 410 c0 226 1 410 3 410 1 0 187 -184 412 -410z"/>
</g>
</svg>
