<?xml version="1.0" standalone="no"?>
<!DOCTYPE svg PUBLIC "-//W3C//DTD SVG 20010904//EN"
 "http://www.w3.org/TR/2001/REC-SVG-20010904/DTD/svg10.dtd">
<svg version="1.0" xmlns="http://www.w3.org/2000/svg"
 width="512.000000pt" height="512.000000pt" viewBox="0 0 512.000000 512.000000"
 preserveAspectRatio="xMidYMid meet">

<g transform="translate(0.000000,512.000000) scale(0.100000,-0.100000)"
fill="#249ECE" stroke="none">
<path d="M726 5099 l-26 -20 0 -1315 c0 -1301 0 -1314 20 -1334 27 -27 81 -26
106 1 18 20 19 58 22 1280 l2 1259 1620 0 1620 0 0 -1715 0 -1715 -260 0
c-247 0 -261 -1 -280 -20 -20 -20 -26 -54 -14 -85 16 -40 52 -45 309 -45 l245
0 0 -225 0 -225 -1648 0 -1648 0 -98 73 c-96 71 -97 72 -64 75 83 7 118 49 92
110 -13 32 -28 39 -93 44 l-35 3 97 72 96 73 1246 2 1247 3 24 28 c29 34 30
56 3 91 l-20 26 -1219 0 -1219 0 -3 309 c-3 287 -4 310 -22 330 -25 27 -79 28
-106 1 -19 -19 -20 -33 -20 -345 l0 -325 -199 -149 c-207 -156 -223 -174 -200
-224 6 -13 98 -89 204 -168 l194 -144 1 -252 0 -252 26 -20 c24 -19 40 -21
160 -21 l134 0 0 -115 c0 -110 1 -117 25 -140 l24 -25 1724 0 1724 0 21 23
c22 23 22 27 22 395 0 353 1 372 18 372 78 0 185 78 223 162 22 49 24 65 24
218 -1 185 -7 209 -72 281 -41 45 -93 75 -150 87 l-38 8 -3 854 -2 854 -22 23
c-38 41 -98 26 -117 -28 -8 -22 -11 -284 -11 -870 l0 -839 -85 0 -85 0 0 1575
0 1575 85 0 85 0 0 -554 c0 -378 3 -563 11 -585 19 -54 79 -69 117 -28 l22 23
0 626 0 627 -26 20 c-24 19 -40 21 -160 21 l-134 0 0 115 c0 110 -1 117 -25
140 l-24 25 -1719 0 -1719 0 -27 -21z m3903 -3735 c40 -33 51 -77 50 -204 0
-125 -12 -166 -58 -197 -32 -22 -43 -23 -207 -23 l-174 0 0 225 0 225 179 0
c178 0 180 0 210 -26z m-539 -754 l0 -180 -1620 0 -1620 0 0 180 0 180 1620 0
1620 0 0 -180z m320 -140 l0 -320 -1620 0 -1620 0 0 65 0 65 1516 2 1516 3 19
24 c17 21 19 42 19 252 l0 229 85 0 85 0 0 -320z"/>
<path d="M2040 4706 c-20 -12 -59 -95 -200 -425 -96 -226 -177 -411 -180 -411
-3 0 -64 131 -135 291 -73 165 -136 294 -146 300 -10 5 -63 9 -118 9 -96 0
-100 -1 -120 -26 -24 -31 -26 -43 -10 -78 15 -31 30 -38 103 -45 l58 -6 154
-345 c84 -190 161 -350 171 -357 24 -18 78 -16 94 3 8 9 104 226 214 483 l200
466 776 3 c747 2 777 3 793 21 25 27 24 78 -3 104 l-22 22 -802 2 c-667 2
-806 0 -827 -11z"/>
<path d="M2295 4325 c-14 -13 -25 -33 -25 -44 0 -19 51 -99 155 -246 l43 -60
-94 -135 c-52 -74 -97 -146 -101 -158 -7 -30 25 -76 57 -80 48 -8 66 8 145
122 44 64 82 115 85 115 3 0 34 -43 70 -95 88 -130 102 -144 143 -144 36 0 60
19 71 57 9 28 4 36 -104 190 l-89 127 53 75 c140 201 148 213 141 240 -13 55
-86 81 -122 43 -10 -10 -49 -64 -88 -120 -38 -56 -72 -101 -75 -102 -3 0 -32
39 -65 87 -88 128 -112 153 -146 153 -18 0 -40 -10 -54 -25z"/>
<path d="M1141 3354 c-34 -43 -26 -86 20 -109 23 -12 85 -15 338 -15 209 0
318 4 335 11 51 23 55 103 7 128 -13 7 -136 11 -350 11 l-330 0 -20 -26z"/>
<path d="M2982 3357 c-27 -29 -28 -67 -3 -98 l19 -24 330 -3 330 -3 28 24 c34
30 36 83 3 109 -19 16 -51 18 -353 18 l-333 0 -21 -23z"/>
<path d="M1145 3015 c-14 -13 -25 -36 -25 -50 0 -14 11 -37 25 -50 l24 -25
328 0 c356 0 364 1 377 55 7 29 -15 79 -39 89 -9 3 -163 6 -341 6 l-325 0 -24
-25z"/>
<path d="M2985 3015 c-14 -13 -25 -36 -25 -50 0 -14 11 -37 25 -50 l24 -25
325 0 c178 0 332 3 341 6 26 10 44 62 33 94 -16 47 -36 50 -379 50 l-320 0
-24 -25z"/>
<path d="M1256 2518 c-112 -128 -158 -308 -121 -481 28 -135 138 -297 201
-297 72 0 97 76 45 136 -138 157 -145 374 -15 540 28 37 44 68 44 86 0 39 -32
68 -74 68 -29 0 -42 -8 -80 -52z"/>
<path d="M2990 2548 c-30 -33 -25 -70 17 -120 20 -23 50 -72 67 -108 28 -59
31 -74 31 -165 -1 -116 -19 -169 -92 -263 -49 -63 -54 -98 -20 -130 37 -35 74
-29 122 22 190 197 191 538 2 743 -47 51 -92 58 -127 21z"/>
<path d="M1526 2429 c-44 -34 -36 -71 38 -179 36 -51 62 -98 58 -104 -3 -6
-32 -48 -64 -93 -43 -61 -58 -90 -58 -116 0 -43 29 -70 72 -69 35 1 64 28 116
109 15 24 30 43 33 43 3 0 27 -31 53 -69 64 -95 120 -111 162 -47 23 35 15 57
-59 161 l-64 90 68 99 c38 55 69 105 69 112 0 28 -24 63 -49 74 -43 18 -74 -2
-127 -79 -27 -38 -52 -67 -56 -65 -5 3 -26 32 -48 64 -62 92 -95 108 -144 69z"/>
<path d="M2494 2427 c-43 -37 -35 -70 40 -177 l65 -93 -66 -95 c-72 -104 -81
-138 -45 -174 20 -20 69 -27 92 -13 12 7 328 457 336 479 10 27 -16 73 -47 87
-44 18 -69 2 -127 -81 l-51 -72 -33 48 c-47 69 -93 114 -116 114 -12 0 -33
-11 -48 -23z"/>
<path d="M2151 2354 c-15 -19 -21 -41 -21 -75 l0 -49 -50 0 c-41 0 -56 -5 -75
-25 -32 -31 -32 -69 0 -100 19 -20 34 -25 75 -25 l50 0 0 -50 c0 -41 5 -56 25
-75 13 -14 36 -25 50 -25 14 0 37 11 50 25 20 19 25 34 25 75 l0 50 49 0 c63
0 101 28 101 74 0 50 -34 76 -98 76 l-52 0 0 53 c0 43 -5 58 -23 75 -33 31
-80 29 -106 -4z"/>
<path d="M3392 2353 c-12 -10 -24 -30 -28 -45 -5 -22 0 -33 24 -58 l30 -30
121 0 c111 0 122 2 147 23 34 30 36 83 3 109 -32 26 -267 26 -297 1z"/>
<path d="M3402 2083 c-7 -3 -19 -18 -28 -35 -13 -25 -13 -35 -3 -59 6 -17 20
-34 30 -39 20 -11 248 -14 274 -4 44 17 48 99 7 130 -17 13 -251 19 -280 7z"/>
</g>
</svg>
